HIERARCHY
ROOT root
{
	OFFSET	0	13.1	24.9
	CHANNELS 6  Xposition Yposition Zposition Xrotation Yrotation Zrotation
	JOINT spine_1
	{
		OFFSET	0	9.99999	0
		CHANNELS 3  Xrotation Yrotation Zrotation
		JOINT spine_2
		{
			OFFSET	0	112	-10
			CHANNELS 3  Xrotation Yrotation Zrotation
			JOINT spine_3
			{
				OFFSET	0	206.5	19.3
				CHANNELS 3  Xrotation Yrotation Zrotation
				JOINT spine_4
				{
					OFFSET	0	110.4	14.6
					CHANNELS 3  Xrotation Yrotation Zrotation
					JOINT neck_1
					{
						OFFSET	0	71.8	-50.3
						CHANNELS 3  Xrotation Yrotation Zrotation
						JOINT neck_2
						{
							OFFSET	0	86.2	-25.8
							CHANNELS 3  Xrotation Yrotation Zrotation
							JOINT head_ee
							{
								OFFSET	0	179.8	-8.7
								CHANNELS 3  Xrotation Yrotation Zrotation
								End Site
								{
									OFFSET	1	0	0
								}
							}
						}
					}
					JOINT left_clavicle
					{
						OFFSET	-43.2	22.4	-70.8
						CHANNELS 3  Xrotation Yrotation Zrotation
						JOINT left_shoulder
						{
							OFFSET	-93.9	-5.79999	48.7
							CHANNELS 3  Xrotation Yrotation Zrotation
							JOINT left_elbow
							{
								OFFSET	-291.4	-30.8	15.2
								CHANNELS 3  Xrotation Yrotation Zrotation
								JOINT left_lowarm_twist
								{
									OFFSET	-110.7	-3.89999	13.6
									CHANNELS 3  Xrotation Yrotation Zrotation
									JOINT left_hand
									{
										OFFSET	-110.7	-3.89999	13.6
										CHANNELS 3  Xrotation Yrotation Zrotation
										JOINT left_ee
										{
											OFFSET	-80.8	-5.10001	12.1
											CHANNELS 3  Xrotation Yrotation Zrotation
											End Site
											{
												OFFSET	1	0	0
											}
										}
									}
								}
							}
						}
					}
					JOINT right_clavicle
					{
						OFFSET	43.2	22.4	-70.8
						CHANNELS 3  Xrotation Yrotation Zrotation
						JOINT right_shoulder
						{
							OFFSET	93.9	-5.79999	48.7
							CHANNELS 3  Xrotation Yrotation Zrotation
							JOINT right_elbow
							{
								OFFSET	291.4	-30.8	15.2
								CHANNELS 3  Xrotation Yrotation Zrotation
								JOINT right_lowarm_twist
								{
									OFFSET	110.7	-3.89999	13.6
									CHANNELS 3  Xrotation Yrotation Zrotation
									JOINT right_hand
									{
										OFFSET	110.7	-3.89999	13.6
										CHANNELS 3  Xrotation Yrotation Zrotation
										JOINT right_ee
										{
											OFFSET	80.8	-5.10001	12.1
											CHANNELS 3  Xrotation Yrotation Zrotation
											End Site
											{
												OFFSET	1	0	0
											}
										}
									}
								}
							}
						}
					}
				}
			}
		}
	}
	JOINT left_hip
	{
		OFFSET	-82.8	-127.5	0.300001
		CHANNELS 3  Xrotation Yrotation Zrotation
		JOINT left_knee
		{
			OFFSET	-28.2	-396.7	2.2
			CHANNELS 3  Xrotation Yrotation Zrotation
			JOINT left_ankle
			{
				OFFSET	-11.7	-411.3	35.4
				CHANNELS 3  Xrotation Yrotation Zrotation
				JOINT left_toes
				{
					OFFSET	0	-60	-88.6
					CHANNELS 3  Xrotation Yrotation Zrotation
					JOINT left_foot_ee
					{
						OFFSET	-22.5	-16.5	-42.2
						CHANNELS 3  Xrotation Yrotation Zrotation
						End Site
						{
							OFFSET	1	0	0
						}
					}
				}
			}
		}
	}
	JOINT right_hip
	{
		OFFSET	82.8	-127.5	0.300001
		CHANNELS 3  Xrotation Yrotation Zrotation
		JOINT right_knee
		{
			OFFSET	28.2	-396.7	2.2
			CHANNELS 3  Xrotation Yrotation Zrotation
			JOINT right_ankle
			{
				OFFSET	11.7	-411.3	35.4
				CHANNELS 3  Xrotation Yrotation Zrotation
				JOINT right_toes
				{
					OFFSET	0	-60	-88.6
					CHANNELS 3  Xrotation Yrotation Zrotation
					JOINT right_foot_ee
					{
						OFFSET	22.5	-16.5	-42.2
						CHANNELS 3  Xrotation Yrotation Zrotation
						End Site
						{
							OFFSET	1	0	0
						}
					}
				}
			}
		}
	}
}
MOTION
Frames: 9
Frame Time: 0.02
3009.30994336 676.916 -1907.40008568 -16.4213014633 15.8066904996 14.8431069412 7.66392 -0.65933 -2.48668 7.66722 -0.499812 -2.52356 7.6837 -0.302916 -2.55466 7.67528 -0.702453 -2.47485 -18.2884 -2.68224 2.74128 -18.3229 -6.63535 1.51722 -0.0 0.0 -0.0 10.1629 4.30763 19.7118 2.51762 -12.6252 63.2784 0.367935 -10.3298 0.0332576 76.4778 -3.43877 -8.39889 -1.25398 11.1876 -3.35627 -0.0 0.0 -0.0 5.9932 5.34889 -11.4666 -31.8175 10.7395 -64.8008 0.606515 16.723 -0.0891468 18.153 -0.278537 2.29248 1.8563 2.55886 -11.4636 0.0 0.0 0.0 28.7356 -33.6069 -0.744409 -19.9959 0.295689 3.03873 33.433 26.0798 -4.52351 4.18149 -0.0 -0.0 -0.0 0.0 -0.0 41.6898 3.41959 -11.9025 -59.964 2.1961 -8.52149 19.7314 -12.9907 2.7114 -11.1038 0.0 0.0 0.0 0.0 0.0 
3003.33024873 676.916 -1903.07397358 -16.5433579657 17.1990218878 15.2727542596 7.66392 -0.65933 -2.48668 7.66722 -0.499812 -2.52356 7.6837 -0.302916 -2.55466 7.67528 -0.702453 -2.47485 -18.2884 -2.68224 2.74128 -18.3229 -6.63535 1.51722 -0.0 0.0 -0.0 10.1629 4.30763 19.7118 2.51762 -12.6252 63.2784 0.367935 -10.3298 0.0332576 76.4778 -3.43877 -8.39889 -1.25398 11.1876 -3.35627 -0.0 0.0 -0.0 5.9932 5.34889 -11.4666 -31.8175 10.7395 -64.8008 0.606515 16.723 -0.0891468 18.153 -0.278537 2.29248 1.8563 2.55886 -11.4636 0.0 0.0 0.0 28.7356 -33.6069 -0.744409 -19.9959 0.295689 3.03873 33.433 26.0798 -4.52351 4.18149 -0.0 -0.0 -0.0 0.0 -0.0 41.6898 3.41959 -11.9025 -59.964 2.1961 -8.52149 19.7314 -12.9907 2.7114 -11.1038 0.0 0.0 0.0 0.0 0.0 
2995.16938171 676.916 -1896.78379909 -16.7338806488 19.141292571 15.8836240628 7.66392 -0.65933 -2.48668 7.66722 -0.499812 -2.52356 7.6837 -0.302916 -2.55466 7.67528 -0.702453 -2.47485 -18.2884 -2.68224 2.74128 -18.3229 -6.63535 1.51722 -0.0 0.0 -0.0 10.1629 4.30763 19.7118 2.51762 -12.6252 63.2784 0.367935 -10.3298 0.0332576 76.4778 -3.43877 -8.39889 -1.25398 11.1876 -3.35627 -0.0 0.0 -0.0 5.9932 5.34889 -11.4666 -31.8175 10.7395 -64.8008 0.606515 16.723 -0.0891468 18.153 -0.278537 2.29248 1.8563 2.55886 -11.4636 0.0 0.0 0.0 28.7356 -33.6069 -0.744409 -19.9959 0.295689 3.03873 33.433 26.0798 -4.52351 4.18149 -0.0 -0.0 -0.0 0.0 -0.0 41.6898 3.41959 -11.9025 -59.964 2.1961 -8.52149 19.7314 -12.9907 2.7114 -11.1038 0.0 0.0 0.0 0.0 0.0 
2986.60360517 676.916 -1889.66393807 -16.9675029131 21.2386029493 16.5604077318 7.66392 -0.65933 -2.48668 7.66722 -0.499812 -2.52356 7.6837 -0.302916 -2.55466 7.67528 -0.702453 -2.47485 -18.2884 -2.68224 2.74128 -18.3229 -6.63535 1.51722 -0.0 0.0 -0.0 10.1629 4.30763 19.7118 2.51762 -12.6252 63.2784 0.367935 -10.3298 0.0332576 76.4778 -3.43877 -8.39889 -1.25398 11.1876 -3.35627 -0.0 0.0 -0.0 5.9932 5.34889 -11.4666 -31.8175 10.7395 -64.8008 0.606515 16.723 -0.0891468 18.153 -0.278537 2.29248 1.8563 2.55886 -11.4636 0.0 0.0 0.0 28.7356 -33.6069 -0.744409 -19.9959 0.295689 3.03873 33.433 26.0798 -4.52351 4.18149 -0.0 -0.0 -0.0 0.0 -0.0 41.6898 3.41959 -11.9025 -59.964 2.1961 -8.52149 19.7314 -12.9907 2.7114 -11.1038 0.0 0.0 0.0 0.0 0.0 
2862.94263219 690.798 -1819.2002169 -39.6788876254 52.5028248465 36.7824167824 10.3765 0.110004 0.181097 10.3765 0.0982571 0.18773 10.3768 0.0924592 0.190652 10.3768 0.121409 0.173658 -23.7843 -7.79895 -2.68949 -24.1269 -13.8588 -6.31522 -0.0 0.0 -0.0 10.0043 1.57371 19.5793 -69.5989 -45.482 63.224 0.481205 -13.4078 0.0565623 77.044 -3.50215 -8.43443 4.61051 26.3236 39.7624 -0.0 0.0 -0.0 5.85386 -19.1578 -11.0516 -47.9686 25.3805 -53.0186 0.397736 11.1463 -0.0388102 24.3069 -0.206962 3.07489 -1.7478 9.6362 16.0984 0.0 0.0 0.0 30.1074 1.96257 2.6586 -10.6251 0.289575 1.60257 30.8404 -10.6377 -4.15089 -4.29012 0.0 0.0 -0.0 0.0 -0.0 57.8691 1.40114 -3.86448 -59.1469 2.10857 -8.43078 14.0443 -30.0948 2.12823 -14.8563 0.0 0.0 0.0 0.0 0.0 
2861.48579654 690.798 -1816.10904694 -40.1530915093 52.9343359519 37.3783912193 10.3765 0.110004 0.181097 10.3765 0.0982571 0.18773 10.3768 0.0924592 0.190652 10.3768 0.121409 0.173658 -23.7843 -7.79895 -2.68949 -24.1269 -13.8588 -6.31522 -0.0 0.0 -0.0 10.0043 1.57371 19.5793 -69.5989 -45.482 63.224 0.481205 -13.4078 0.0565623 77.044 -3.50215 -8.43443 4.61051 26.3236 39.7624 -0.0 0.0 -0.0 5.85386 -19.1578 -11.0516 -47.9686 25.3805 -53.0186 0.397736 11.1463 -0.0388102 24.3069 -0.206962 3.07489 -1.7478 9.6362 16.0984 0.0 0.0 0.0 30.1074 1.96257 2.6586 -10.6251 0.289575 1.60257 30.8404 -10.6377 -4.15089 -4.29012 0.0 0.0 -0.0 0.0 -0.0 57.8691 1.40114 -3.86448 -59.1469 2.10857 -8.43078 14.0443 -30.0948 2.12823 -14.8563 0.0 0.0 0.0 0.0 0.0 
2826.15744826 686.825 -1742.07364023 -55.3079354739 62.9087849576 55.3918808971 9.94066 0.110382 0.192447 9.94067 0.0979123 0.199081 9.94097 0.0902278 0.20268 9.94094 0.121105 0.185886 -23.9005 -7.79632 -2.70554 -24.2452 -13.8514 -6.34516 -0.0 0.0 -0.0 9.99817 1.57188 19.5668 -69.2705 -45.3328 63.5083 0.481414 -13.4135 0.0566108 77.0593 -3.50387 -8.43539 4.60516 26.2388 39.7132 -0.0 0.0 -0.0 5.84106 -19.1456 -11.0325 -47.9706 25.4133 -52.9729 0.398329 11.1625 -0.0389249 24.307 -0.20696 3.0749 -1.74641 9.66055 16.0993 0.0 0.0 0.0 29.4757 2.01598 2.59733 -10.8963 0.293051 1.64403 30.8961 -10.4079 -4.15195 -4.29093 0.0 0.0 -0.0 0.0 -0.0 59.676 1.07803 -3.976 -56.4079 1.82484 -8.11794 14.0316 -29.6725 2.12 -14.8541 0.0 0.0 0.0 0.0 0.0 
2827.46392567 686.825 -1748.10966379 -53.7548192362 62.3357217231 53.6429150055 9.94066 0.110382 0.192447 9.94067 0.0979123 0.199081 9.94097 0.0902278 0.20268 9.94094 0.121105 0.185886 -23.9005 -7.79632 -2.70554 -24.2452 -13.8514 -6.34516 -0.0 0.0 -0.0 9.99817 1.57188 19.5668 -69.2705 -45.3328 63.5083 0.481414 -13.4135 0.0566108 77.0593 -3.50387 -8.43539 4.60516 26.2388 39.7132 -0.0 0.0 -0.0 5.84106 -19.1456 -11.0325 -47.9706 25.4133 -52.9729 0.398329 11.1625 -0.0389249 24.307 -0.20696 3.0749 -1.74641 9.66055 16.0993 0.0 0.0 0.0 29.4757 2.01598 2.59733 -10.8963 0.293051 1.64403 30.8961 -10.4079 -4.15195 -4.29093 0.0 0.0 -0.0 0.0 -0.0 59.676 1.07803 -3.976 -56.4079 1.82484 -8.11794 14.0316 -29.6725 2.12 -14.8541 0.0 0.0 0.0 0.0 0.0 
2829.1376207 686.825 -1755.1959874 -52.00980262 61.6330427647 51.6663552961 9.94066 0.110382 0.192447 9.94067 0.0979123 0.199081 9.94097 0.0902278 0.20268 9.94094 0.121105 0.185886 -23.9005 -7.79632 -2.70554 -24.2452 -13.8514 -6.34516 -0.0 0.0 -0.0 9.99817 1.57188 19.5668 -69.2705 -45.3328 63.5083 0.481414 -13.4135 0.0566108 77.0593 -3.50387 -8.43539 4.60516 26.2388 39.7132 -0.0 0.0 -0.0 5.84106 -19.1456 -11.0325 -47.9706 25.4133 -52.9729 0.398329 11.1625 -0.0389249 24.307 -0.20696 3.0749 -1.74641 9.66055 16.0993 0.0 0.0 0.0 29.4757 2.01598 2.59733 -10.8963 0.293051 1.64403 30.8961 -10.4079 -4.15195 -4.29093 0.0 0.0 -0.0 0.0 -0.0 59.676 1.07803 -3.976 -56.4079 1.82484 -8.11794 14.0316 -29.6725 2.12 -14.8541 0.0 0.0 0.0 0.0 0.0 
